<svg width="20" height="20" viewBox="0 0 20 20" fill="none" xmlns="http://www.w3.org/2000/svg">
<path d="M17.0892 6.66C16.9588 6.54292 16.8155 6.48438 16.6592 6.48438C16.503 6.48438 16.3663 6.54292 16.2492 6.66L9.99922 12.7537L3.74922 6.66C3.63214 6.54292 3.49547 6.48438 3.33922 6.48438C3.18297 6.48438 3.0463 6.54292 2.92922 6.66C2.81214 6.77708 2.75359 6.91375 2.75359 7.07C2.75359 7.22625 2.80568 7.36292 2.90984 7.48L9.56984 13.945C9.68693 14.0621 9.83026 14.1206 9.99984 14.1206C10.1694 14.1206 10.3128 14.0621 10.4298 13.945L17.0898 7.48C17.194 7.36292 17.2461 7.22625 17.2461 7.07C17.2461 6.91375 17.194 6.77708 17.0898 6.66H17.0892Z" fill="#4B4B4D"/>
</svg>
