<svg width="30" height="30" viewBox="0 0 30 30" fill="none" xmlns="http://www.w3.org/2000/svg">
<mask id="mask0_706_1186" style="mask-type:alpha" maskUnits="userSpaceOnUse" x="0" y="0" width="30" height="30">
<rect width="30" height="30" fill="#D9D9D9"/>
</mask>
<g mask="url(#mask0_706_1186)">
<path d="M17.6263 6.25C21.395 7.50924 23.1241 10.6776 23.75 12.2719M16.25 9.06627C18.9373 9.60861 20.5599 11.8644 21.0129 13.75M8.8678 8.80822C8.4662 8.93734 8.13211 9.21641 7.18991 10.2098C6.51499 10.9214 6.32946 11.2794 6.26471 11.9953C6.17269 13.0128 6.51293 14.2997 7.26746 15.788C7.58674 16.4178 7.72986 16.6619 8.13468 17.267C9.66259 19.5509 11.6689 21.3696 14.0425 22.6222C15.3876 23.3321 16.5249 23.6953 17.5618 23.746C18.2949 23.7819 18.9467 23.5756 19.4373 23.1526C19.4948 23.1029 19.8557 22.7416 20.2393 22.3496C20.8744 21.7006 20.9486 21.6134 21.0699 21.3735C21.308 20.9025 21.3099 20.4831 21.0763 20.0031C20.9507 19.745 20.9185 19.7095 19.789 18.5837C18.6927 17.491 18.6179 17.4231 18.3943 17.3176C17.9155 17.0917 17.4224 17.1153 16.9565 17.3863C16.8782 17.4317 16.5219 17.7568 16.1646 18.1086L15.7607 18.5064C15.6143 18.6506 15.3892 18.6822 15.2037 18.5848C13.8294 17.8629 12.0254 16.0535 11.357 14.7266C11.2855 14.5847 11.3115 14.4151 11.4216 14.3044L11.8413 13.8829C12.4851 13.2363 12.64 13.0415 12.7445 12.7472C12.8856 12.3499 12.8586 11.9681 12.6611 11.5674C12.5592 11.3607 12.4536 11.2461 11.3916 10.1884C10.1829 8.9846 10.0855 8.90358 9.71724 8.7957C9.49314 8.73004 9.0927 8.73593 8.8678 8.80822Z" stroke="#4B4B4D" stroke-width="1.5" stroke-linecap="round"/>
</g>
</svg>
