<svg width="30" height="30" viewBox="0 0 30 30" fill="none" xmlns="http://www.w3.org/2000/svg">
<mask id="mask0_706_1187" style="mask-type:alpha" maskUnits="userSpaceOnUse" x="0" y="0" width="30" height="30">
<rect width="30" height="30" fill="#D9D9D9"/>
</mask>
<g mask="url(#mask0_706_1187)">
</g>
<path d="M10.3125 24.164C10.8303 24.164 11.25 23.7799 11.25 23.306C11.25 22.8322 10.8303 22.4481 10.3125 22.4481C9.79473 22.4481 9.375 22.8322 9.375 23.306C9.375 23.7799 9.79473 24.164 10.3125 24.164Z" fill="#4B4B4D" stroke="#4B4B4D" stroke-linecap="round" stroke-linejoin="round"/>
<path d="M23.4375 24.164C23.9553 24.164 24.375 23.7799 24.375 23.306C24.375 22.8322 23.9553 22.4481 23.4375 22.4481C22.9197 22.4481 22.5 22.8322 22.5 23.306C22.5 23.7799 22.9197 24.164 23.4375 24.164Z" fill="#4B4B4D" stroke="#4B4B4D" stroke-linecap="round" stroke-linejoin="round"/>
<path d="M2.8125 5.28967H6.5625L9.375 19.8744H24.375" stroke="#4B4B4D" stroke-width="1.5" stroke-linecap="round" stroke-linejoin="round"/>
<path d="M9.375 16.4426H23.9906C24.099 16.4427 24.2041 16.4084 24.288 16.3455C24.3718 16.2827 24.4293 16.1951 24.4506 16.0979L26.1381 8.37655C26.1517 8.31429 26.15 8.25004 26.1332 8.18843C26.1164 8.12683 26.0849 8.06941 26.0409 8.02032C25.9969 7.97122 25.9415 7.93168 25.8788 7.90455C25.816 7.87741 25.7475 7.86336 25.6781 7.8634H7.5" stroke="#4B4B4D" stroke-width="1.5" stroke-linecap="round" stroke-linejoin="round"/>
</svg>
