<svg width="30" height="30" viewBox="0 0 30 30" fill="none" xmlns="http://www.w3.org/2000/svg">
<mask id="mask0_706_1188" style="mask-type:alpha" maskUnits="userSpaceOnUse" x="0" y="0" width="30" height="30">
<rect width="30" height="30" fill="#D9D9D9"/>
</mask>
<g mask="url(#mask0_706_1188)">
</g>
<path d="M15 15C16.6019 14.9606 17.93 14.4138 18.9844 13.3594C20.0388 12.305 20.5856 10.9769 20.625 9.375C20.5856 7.77312 20.0388 6.445 18.9844 5.39062C17.93 4.33625 16.6019 3.78937 15 3.75C13.3981 3.78937 12.07 4.33625 11.0156 5.39062C9.96125 6.445 9.41437 7.77312 9.375 9.375C9.41437 10.9769 9.96125 12.305 11.0156 13.3594C12.07 14.4138 13.3981 14.9606 15 15ZM15 16.875C12.8713 16.8162 11.1037 16.0838 9.6975 14.6775C8.29125 13.2713 7.55875 11.5037 7.5 9.375C7.55875 7.24625 8.29125 5.47875 9.6975 4.0725C11.1037 2.66625 12.8713 1.93375 15 1.875C17.1287 1.93375 18.8963 2.66625 20.3025 4.0725C21.7088 5.47875 22.4412 7.24625 22.5 9.375C22.4412 11.5037 21.7088 13.2713 20.3025 14.6775C18.8963 16.0838 17.1287 16.8162 15 16.875ZM24.375 26.25V23.4375C24.3556 22.6369 24.0822 21.9728 23.5547 21.4453C23.0272 20.9178 22.3631 20.6444 21.5625 20.625H8.4375C7.63688 20.6444 6.97281 20.9178 6.44531 21.4453C5.91781 21.9728 5.64437 22.6369 5.625 23.4375V26.25C5.625 26.5237 5.53719 26.7484 5.36156 26.9241C5.18594 27.0997 4.96125 27.1875 4.6875 27.1875C4.41375 27.1875 4.18906 27.0997 4.01344 26.9241C3.83781 26.7484 3.75 26.5237 3.75 26.25V23.4375C3.78937 22.1094 4.24844 21.0059 5.12719 20.1272C6.00594 19.2484 7.10938 18.7894 8.4375 18.75H21.5625C22.8906 18.7894 23.9941 19.2484 24.8728 20.1272C25.7516 21.0059 26.2106 22.1094 26.25 23.4375V26.25C26.25 26.5237 26.1622 26.7484 25.9866 26.9241C25.8109 27.0997 25.5862 27.1875 25.3125 27.1875C25.0388 27.1875 24.8141 27.0997 24.6384 26.9241C24.4628 26.7484 24.375 26.5237 24.375 26.25Z" fill="#4B4B4D"/>
</svg>
