<svg width="50" height="50" viewBox="0 0 50 50" fill="none" xmlns="http://www.w3.org/2000/svg">
<path d="M20.3125 35.3125C20.8303 35.3125 21.25 34.8928 21.25 34.375C21.25 33.8572 20.8303 33.4375 20.3125 33.4375C19.7947 33.4375 19.375 33.8572 19.375 34.375C19.375 34.8928 19.7947 35.3125 20.3125 35.3125Z" fill="#4B4B4D" stroke="#4B4B4D" stroke-linecap="round" stroke-linejoin="round"/>
<path d="M33.4375 35.3125C33.9553 35.3125 34.375 34.8928 34.375 34.375C34.375 33.8572 33.9553 33.4375 33.4375 33.4375C32.9197 33.4375 32.5 33.8572 32.5 34.375C32.5 34.8928 32.9197 35.3125 33.4375 35.3125Z" fill="#4B4B4D" stroke="#4B4B4D" stroke-linecap="round" stroke-linejoin="round"/>
<path d="M12.8125 14.6875H16.5625L19.375 30.625H34.375" stroke="#4B4B4D" stroke-width="1.5" stroke-linecap="round" stroke-linejoin="round"/>
<path d="M19.375 26.875H33.9906C34.099 26.8751 34.2041 26.8376 34.288 26.7689C34.3718 26.7002 34.4293 26.6045 34.4506 26.4982L36.1381 18.0607C36.1517 17.9927 36.15 17.9225 36.1332 17.8552C36.1164 17.7879 36.0849 17.7251 36.0409 17.6715C35.9969 17.6178 35.9415 17.5746 35.8788 17.545C35.816 17.5153 35.7475 17.5 35.6781 17.5H17.5" stroke="#4B4B4D" stroke-width="1.5" stroke-linecap="round" stroke-linejoin="round"/>
</svg>
